<?xml version="1.0" encoding="UTF-8"?>
<!DOCTYPE svg PUBLIC "-//W3C//DTD SVG 1.1//EN" "http://www.w3.org/Graphics/SVG/1.1/DTD/svg11.dtd">
<!-- Creator: CorelDRAW 2020 (64-Bit) -->
<svg xmlns="http://www.w3.org/2000/svg" xml:space="preserve" width="800px" height="600px" version="1.1" style="shape-rendering:geometricPrecision; text-rendering:geometricPrecision; image-rendering:optimizeQuality; fill-rule:evenodd; clip-rule:evenodd"
viewBox="0 0 80000 60000"
 xmlns:xlink="http://www.w3.org/1999/xlink"
 xmlns:xodm="http://www.corel.com/coreldraw/odm/2003">
 <defs>
  <style type="text/css">
   <![CDATA[
    .fil1 {fill:#2C3892;fill-rule:nonzero}
    .fil0 {fill:transparent;fill-rule:nonzero}
   ]]>
  </style>
 </defs>
 <g id="Слой_x0020_1">
  <metadata id="CorelCorpID_0Corel-Layer"/>
  <g id="_2369219374720">
   <polygon class="fil0" points="1656,59994 76385,59994 76385,211 1656,211 "/>
   <path class="fil1" d="M31005 22984c121,-73 263,-115 414,-115 448,0 811,363 811,810l0 9574c0,447 -363,810 -811,810 -447,0 -810,-363 -810,-810l0 -8262 -2107 1060c-121,72 -263,114 -415,114 -447,0 -810,-362 -810,-810l0 -6140c0,-337 207,-627 500,-748l21328 -10727c398,-201 884,-40 1085,358 112,221 112,468 22,679l-2680 7421c-62,205 -205,385 -410,489l-11341 5703 0 4693 13811 -6946c398,-201 884,-40 1085,358 112,221 112,468 23,679l-2428 6720c-62,205 -204,385 -410,489l-6513 3275 0 9245c0,447 -362,810 -809,810 -205,0 -391,-76 -533,-200l-4656 -3459c-228,-144 -380,-398 -380,-687l0 -5640c0,-447 363,-810 810,-810 447,0 810,363 810,810l0 5236 3139 2332 0 -8134c0,-338 207,-628 502,-749l6617 -3328 1659 -4593 -13122 6599c-121,73 -263,115 -415,115 -446,0 -810,-363 -810,-810l0 -6502c0,-337 207,-627 501,-748l11447 -5758 1913 -5293 -19125 9618 0 4332 2108 -1060z"/>
   <path class="fil1" d="M22954 50452l-1333 0 0 -4013c0,-248 47,-480 141,-696 94,-215 221,-403 381,-563 158,-160 345,-288 561,-382 216,-94 448,-141 695,-141l2676 0 0 1341 -2676 0c-126,0 -232,43 -317,129 -85,87 -128,190 -128,312l0 445 3121 0 0 1341 -3121 0 0 2227zm4782 0l-1334 0 1549 -5795 1358 0 1547 5795 -1334 0 -893 -3326 -893 3326zm4781 0l-1333 0 0 -5795 2672 0c247,0 479,47 695,141 216,94 403,222 563,382 161,160 288,348 382,563 94,216 141,448 141,696l0 2235c0,248 -47,480 -141,695 -94,216 -221,403 -382,561 -160,160 -347,286 -562,381 -214,94 -446,141 -696,141l-1339 0zm0 -4454l0 3121 1339 0c126,0 232,-44 319,-132 86,-88 129,-192 129,-313l0 -2235c0,-122 -43,-225 -128,-312 -84,-86 -191,-129 -320,-129l-1339 0zm4997 4454l-1549 -5795 1334 0 893 3329 893 -3329 1334 0 -1548 5795 -1357 0zm4566 0l-1333 0 0 -5795 1333 0 0 5795zm3000 0l-2672 0 0 -1333 2672 0c126,-6 233,-51 319,-136 86,-85 129,-188 129,-309 0,-127 -42,-233 -127,-320 -85,-86 -192,-129 -321,-129l-893 0c-249,0 -481,-47 -696,-141 -215,-94 -402,-222 -561,-384 -159,-162 -286,-350 -381,-566 -94,-216 -141,-448 -141,-695 0,-248 47,-480 141,-696 95,-215 222,-403 381,-563 159,-160 346,-288 561,-382 215,-94 447,-141 696,-141l1782 0 0 1341 -1782 0c-127,0 -233,43 -318,129 -85,87 -127,190 -127,312 0,126 42,232 127,317 85,85 191,128 318,128l893 0c247,0 479,47 695,141 216,94 403,223 564,385 160,164 287,353 381,568 95,216 142,448 142,696 0,248 -47,480 -142,695 -94,216 -221,403 -381,561 -161,160 -348,286 -563,381 -213,94 -446,141 -696,141zm2109 -1778l0 -2235c0,-248 48,-480 142,-696 94,-215 221,-403 381,-563 158,-160 345,-288 560,-382 216,-94 448,-141 696,-141l2675 0 0 1341 -2675 0c-127,0 -232,43 -317,129 -85,87 -128,190 -128,312l0 445 3120 0 0 1341 -3120 0 0 449c0,121 43,225 128,313 85,88 190,132 317,132l2675 0 0 1333 -2675 0c-248,0 -480,-47 -696,-141 -215,-95 -402,-221 -560,-381 -160,-158 -287,-345 -381,-561 -94,-215 -142,-447 -142,-695zm6116 1778l-1334 0 0 -5795 2672 0c248,0 479,47 694,141 216,94 405,222 565,382 160,160 287,348 381,563 95,216 142,448 142,696 0,210 -34,410 -103,600 -68,190 -164,362 -285,515 121,154 217,326 285,517 69,192 103,393 103,603l0 1778 -1334 0 0 -1778c0,-127 -42,-233 -128,-320 -84,-86 -191,-129 -320,-129l-1338 0 0 2227zm0 -4454l0 886 1338 0c126,0 233,-43 319,-128 86,-85 129,-191 129,-317 0,-122 -42,-225 -128,-312 -84,-86 -191,-129 -320,-129l-1338 0z"/>
  </g>
 </g>
</svg>
