<?xml version="1.0" standalone="no"?>
<!DOCTYPE svg PUBLIC "-//W3C//DTD SVG 20010904//EN"
 "http://www.w3.org/TR/2001/REC-SVG-20010904/DTD/svg10.dtd">
<svg version="1.0" xmlns="http://www.w3.org/2000/svg"
 width="600.000000pt" height="480.000000pt" viewBox="0 0 600.000000 480.000000"
 preserveAspectRatio="xMidYMid meet">

<g transform="translate(0.000000,480.000000) scale(0.100000,-0.100000)"
fill="#000000" stroke="none">
<path d="M3549 4114 c-24 -13 -72 -35 -106 -50 -35 -15 -63 -31 -63 -35 0 -5
-9 -9 -20 -9 -11 0 -20 -4 -20 -10 0 -5 -9 -10 -20 -10 -11 0 -20 -4 -20 -10
0 -5 -5 -10 -11 -10 -19 0 -129 -52 -129 -61 0 -5 -9 -9 -20 -9 -11 0 -20 -4
-20 -10 0 -5 -9 -10 -20 -10 -11 0 -20 -4 -20 -9 0 -5 -13 -12 -30 -16 -16 -4
-30 -11 -30 -16 0 -5 -7 -9 -15 -9 -20 0 -105 -42 -105 -52 0 -4 -9 -8 -20 -8
-11 0 -20 -4 -20 -10 0 -5 -9 -10 -20 -10 -11 0 -20 -4 -20 -10 0 -5 -9 -10
-20 -10 -11 0 -20 -4 -20 -10 0 -5 -6 -10 -13 -10 -19 0 -221 -100 -225 -111
-2 -5 -10 -9 -18 -9 -19 0 -118 -50 -122 -61 -2 -5 -12 -9 -22 -9 -39 0 -44
-25 -45 -199 0 -187 7 -241 33 -241 9 0 46 14 80 30 35 17 66 30 68 30 2 0 4
-85 4 -189 0 -103 3 -216 6 -250 l7 -61 37 0 37 0 7 61 c11 110 7 498 -6 522
-14 26 -41 48 -48 39 -5 -7 -117 -62 -125 -62 -3 0 -5 55 -5 123 l0 123 75 33
c41 18 75 37 75 42 0 5 9 9 20 9 11 0 20 5 20 10 0 6 9 10 20 10 11 0 20 5 20
10 0 6 7 10 15 10 20 0 119 49 123 61 2 5 12 9 23 9 10 0 19 5 19 10 0 6 9 10
20 10 11 0 20 4 20 9 0 5 14 12 30 16 17 4 30 11 30 16 0 5 6 9 13 9 21 0 161
71 170 86 4 8 14 14 22 14 20 0 85 32 85 42 0 4 7 8 15 8 17 0 117 48 125 60
3 4 17 10 32 13 15 4 33 13 40 21 8 7 24 17 36 20 28 9 29 -13 2 -73 -11 -24
-20 -54 -20 -67 0 -13 -4 -24 -9 -24 -11 0 -31 -54 -32 -84 0 -27 -42 -60
-108 -86 -72 -28 -134 -60 -146 -76 -5 -7 -43 -27 -83 -44 -40 -17 -122 -58
-182 -91 -59 -32 -121 -64 -138 -70 -27 -9 -30 -15 -36 -71 -3 -33 -6 -125 -6
-203 0 -125 2 -144 18 -158 27 -25 48 -21 128 23 40 22 80 40 89 40 8 0 15 5
15 10 0 6 7 10 15 10 20 0 119 49 123 61 2 5 12 9 22 9 10 0 20 7 24 15 3 8
12 15 21 15 19 0 119 49 123 61 2 5 12 9 23 9 10 0 19 5 19 10 0 6 7 10 15 10
17 0 117 48 125 60 8 12 50 22 50 12 0 -5 -19 -64 -43 -131 l-43 -121 -49 -24
c-28 -13 -74 -34 -102 -46 -29 -13 -53 -27 -53 -31 0 -4 -13 -10 -30 -14 -16
-4 -30 -11 -30 -16 0 -5 -6 -9 -14 -9 -8 0 -39 -15 -70 -32 l-56 -33 0 -237
c0 -131 -2 -238 -5 -238 -2 0 -40 25 -85 57 l-80 56 0 157 c0 139 -2 159 -18
173 -24 21 -68 22 -76 1 -3 -9 -6 -92 -6 -185 0 -156 2 -171 20 -189 11 -11
25 -20 30 -20 6 0 13 -7 16 -15 4 -8 13 -15 20 -15 8 0 17 -7 20 -15 4 -8 13
-15 20 -15 8 0 17 -7 20 -15 4 -8 13 -15 20 -15 8 0 17 -7 20 -15 4 -8 13 -15
20 -15 8 0 17 -7 20 -15 4 -8 13 -15 20 -15 8 0 17 -6 20 -14 8 -20 75 -31 85
-14 5 7 9 135 9 285 l0 271 36 21 c19 12 43 21 54 21 10 0 20 7 24 15 3 8 11
15 17 15 20 0 153 64 162 77 4 7 19 13 31 13 42 0 63 32 102 150 20 63 43 120
50 127 7 7 15 27 19 45 4 18 15 57 26 86 10 28 14 52 9 52 -6 0 -10 6 -10 13
0 11 -10 12 -42 7 -52 -9 -78 -19 -78 -31 0 -5 -9 -9 -20 -9 -11 0 -20 -4 -20
-10 0 -5 -6 -10 -13 -10 -19 0 -221 -100 -225 -111 -2 -5 -12 -9 -23 -9 -10 0
-19 -4 -19 -10 0 -5 -9 -10 -20 -10 -11 0 -20 -4 -20 -9 0 -5 -13 -12 -30 -16
-16 -4 -30 -10 -30 -15 0 -5 -13 -11 -30 -15 -16 -4 -30 -11 -30 -16 0 -5 -9
-9 -20 -9 -11 0 -20 -4 -20 -10 0 -5 -7 -10 -15 -10 -17 0 -117 -48 -125 -60
-3 -4 -15 -10 -27 -14 l-23 -7 0 133 0 133 329 164 328 164 13 51 c7 28 19 56
26 64 8 7 14 27 14 43 0 16 4 29 8 29 10 0 32 60 32 88 0 12 4 22 8 22 10 0
38 81 47 134 5 30 2 42 -13 56 -18 17 -20 17 -63 -6z"/>
<path d="M803 1763 c-13 -2 -23 -9 -23 -14 0 -5 -9 -9 -20 -9 -11 0 -28 -9
-37 -20 -10 -11 -23 -20 -30 -20 -7 0 -13 -6 -13 -13 0 -7 -9 -20 -20 -30 -11
-9 -20 -25 -20 -36 0 -11 -6 -21 -12 -23 -10 -4 -14 -78 -16 -316 l-3 -312 95
0 96 0 0 155 0 155 215 0 215 0 0 90 0 90 -215 0 -215 0 0 43 c1 77 1 77 229
77 l201 0 0 58 c0 31 -3 74 -6 95 l-7 37 -196 -1 c-108 -1 -206 -4 -218 -6z"/>
<path d="M1382 1378 c-57 -216 -103 -396 -102 -400 0 -5 40 -8 88 -8 l89 0 23
110 c14 61 27 110 31 110 4 0 10 27 14 60 4 33 11 60 15 60 4 0 11 23 15 50 9
65 30 66 40 3 4 -27 19 -88 35 -138 15 -49 30 -103 33 -120 3 -16 11 -54 18
-82 l14 -53 87 0 c49 0 88 3 88 8 1 4 -45 184 -102 400 l-102 392 -91 0 -91 0
-102 -392z"/>
<path d="M2048 1762 l-118 -3 0 -395 0 -396 213 4 c236 4 256 9 324 80 58 60
63 85 63 320 0 194 -2 215 -21 255 -24 49 -88 108 -133 122 -37 12 -168 17
-328 13z m293 -201 c17 -21 19 -41 19 -191 0 -154 -2 -169 -21 -194 -20 -25
-24 -26 -130 -26 l-109 0 0 213 c0 118 3 217 8 221 4 4 54 6 110 4 95 -3 105
-5 123 -27z"/>
<path d="M3653 1763 c-13 -2 -23 -9 -23 -14 0 -5 -9 -9 -20 -9 -11 0 -28 -9
-37 -20 -10 -11 -23 -20 -30 -20 -7 0 -13 -7 -13 -15 0 -9 -6 -18 -14 -21 -8
-3 -17 -17 -21 -32 -4 -15 -11 -30 -17 -33 -15 -10 -10 -141 7 -176 18 -36 83
-106 114 -123 13 -6 82 -17 154 -23 l132 -12 3 -32 c2 -18 -2 -41 -8 -53 -10
-19 -20 -20 -184 -20 -95 0 -188 -3 -205 -6 l-31 -6 0 -89 0 -89 210 0 c169 0
217 3 250 16 22 9 40 20 40 25 0 5 4 9 9 9 14 0 61 45 61 58 0 6 4 12 10 14 5
2 17 32 26 68 15 60 15 68 0 116 -20 63 -81 135 -139 163 -34 16 -63 21 -133
21 -49 0 -99 3 -111 6 -23 6 -50 63 -35 73 5 3 11 13 14 22 5 12 28 17 103 23
53 3 119 4 146 0 l49 -7 0 59 c0 33 -3 76 -6 97 l-7 37 -136 -1 c-75 -1 -146
-4 -158 -6z"/>
<path d="M4313 1760 c-42 -6 -62 -17 -107 -55 -30 -27 -61 -62 -67 -79 -8 -19
-14 -112 -17 -245 -4 -207 -3 -215 19 -260 32 -65 66 -99 126 -127 49 -23 61
-24 257 -24 l206 0 0 94 0 93 -182 -1 c-223 0 -238 4 -238 69 l0 45 210 0 210
0 0 95 0 95 -210 0 -210 0 0 38 c0 21 7 48 16 60 15 21 20 22 208 22 l194 0 4
59 c2 33 2 76 0 95 l-4 36 -182 -1 c-99 -1 -204 -5 -233 -9z"/>
<path d="M2590 1753 c0 -5 46 -182 102 -395 l103 -388 91 0 92 0 17 63 c9 34
56 211 104 392 l88 330 -85 3 c-54 2 -88 -1 -92 -8 -4 -6 -31 -102 -60 -213
-29 -111 -56 -206 -60 -210 -7 -8 -35 85 -97 325 l-28 108 -87 0 c-49 0 -88
-3 -88 -7z"/>
<path d="M3240 1365 l0 -395 90 0 90 0 0 395 0 395 -90 0 -90 0 0 -395z"/>
<path d="M4780 1365 l0 -395 90 0 90 0 0 155 0 155 103 0 c138 0 137 1 137
-157 0 -67 3 -128 6 -137 5 -13 23 -16 96 -16 l89 0 -3 153 c-3 134 -6 158
-25 198 -28 55 -28 54 -3 89 41 57 28 195 -24 257 -66 80 -93 87 -343 91
l-213 3 0 -396z m408 203 c7 -7 12 -29 12 -50 0 -50 -21 -58 -146 -58 l-94 0
0 60 0 60 108 0 c71 0 112 -4 120 -12z"/>
</g>
</svg>
